<svg preserveAspectRatio="none" width="100%" height="100%" overflow="visible" style="display: block;" viewBox="0 0 72.3302 76.195" fill="none" xmlns="http://www.w3.org/2000/svg">
<g id="Calque_2" filter="url(#filter0_d_0_31)">
<path id="Vector" d="M21.5225 27.0433C21.7918 27.205 22.0311 27.3128 22.2705 27.4475C24.6941 28.8761 27.0878 30.3315 29.5114 31.76C31.6657 33.0268 33.7901 32.5147 34.8972 30.4393C37.261 25.9921 39.6247 21.5179 41.9885 17.0707C42.1082 16.855 42.2279 16.6125 42.3775 16.3429C42.557 16.4507 42.6767 16.5047 42.7964 16.6125C46.9255 20.5745 50.6357 24.7792 53.2388 29.7116C55.2436 33.485 56.3506 37.4471 56.3207 41.6518C56.2908 50.681 48.6908 58.3626 38.757 59.4946C27.7161 60.7344 17.6627 53.7806 16.1965 43.808C15.7776 40.8701 16.2564 38.0401 17.2438 35.237C18.2012 32.5417 19.5776 30.0081 21.1335 27.5554C21.2532 27.3667 21.4028 27.205 21.5524 26.9893L21.5225 27.0433Z" fill="url(#paint0_linear_0_31)"/>
<path id="Vector_2" d="M30.475 25.4782C31.0574 24.4042 31.5816 23.4349 32.0766 22.4656C34.1151 18.6148 36.1536 14.7639 38.1921 10.9131C39.3569 8.7388 41.8905 8.37206 43.7833 10.0486C48.0933 13.8995 52.1993 17.9075 55.49 22.518C58.7516 27.05 61.1104 31.8963 61.984 37.2665C63.3236 45.8065 60.8192 53.1939 53.7136 59.1142C49.5202 62.6245 44.4531 64.6416 38.7162 65.087C30.0673 65.7681 22.6996 63.227 16.788 57.5162C12.8858 53.6654 10.7017 49.0811 10.1193 43.8942C9.59511 39.1265 10.8473 34.6469 12.9149 30.3245C14.3419 27.3382 16.1182 24.509 18.1276 21.8107C19.2051 20.3437 21.1562 19.977 22.787 20.9463C25.0876 22.2823 27.359 23.6707 29.6596 25.0329C29.8925 25.1639 30.1546 25.2948 30.475 25.5044V25.4782ZM21.9134 27.5739C21.7386 27.7835 21.6221 27.9407 21.5057 28.124C19.9914 30.5079 18.6518 32.9703 17.7199 35.59C16.7589 38.3144 16.293 41.065 16.7007 43.9204C18.1276 53.5868 27.8832 60.3716 38.658 59.1666C48.3262 58.0664 55.723 50.6004 55.7521 41.8247C55.7521 37.7643 54.6746 33.8872 52.7526 30.2197C50.2191 25.4258 46.6081 21.313 42.5894 17.4884C42.502 17.3836 42.3564 17.3312 42.1817 17.2264C42.0361 17.4884 41.9196 17.6979 41.8031 17.9337C39.5025 22.2561 37.2311 26.6047 34.9014 30.927C33.8239 32.9442 31.7272 33.4419 29.6596 32.2107C27.3008 30.8223 24.9711 29.4077 22.6123 28.0193C22.3793 27.8883 22.1463 27.7573 21.8842 27.6263L21.9134 27.5739Z" fill="var(--fill-0, white)"/>
<path id="Vector_3" d="M27.9827 41.379C28.1241 41.4651 28.2498 41.5224 28.3754 41.5941C29.6478 42.3539 30.9045 43.1281 32.1769 43.888C33.3079 44.5618 34.4232 44.2894 35.0045 43.1855C36.2454 40.8199 37.4864 38.44 38.7274 36.0745C38.7902 35.9598 38.8531 35.8307 38.9316 35.6874C39.0259 35.7447 39.0887 35.7734 39.1515 35.8307C41.3193 37.9382 43.2672 40.1748 44.6338 42.7984C45.6863 44.8055 46.2675 46.913 46.2518 49.1495C46.2361 53.9523 42.2461 58.0382 37.0309 58.6404C31.2344 59.2999 25.9563 55.601 25.1866 50.2964C24.9667 48.7337 25.218 47.2284 25.7364 45.7374C26.2391 44.3037 26.9617 42.9561 27.7785 41.6514C27.8414 41.5511 27.9199 41.4651 27.9984 41.3504L27.9827 41.379Z" fill="var(--fill-0, #D0E7FD)"/>
</g>
<defs>
<filter id="filter0_d_0_31" x="-1.90688e-07" y="-0.0263748" width="72.3628" height="76.2214" filterUnits="userSpaceOnUse" color-interpolation-filters="sRGB">
<feFlood flood-opacity="0" result="BackgroundImageFix"/>
<feColorMatrix in="SourceAlpha" type="matrix" values="0 0 0 0 0 0 0 0 0 0 0 0 0 0 0 0 0 0 127 0" result="hardAlpha"/>
<feOffset dy="1"/>
<feGaussianBlur stdDeviation="5"/>
<feComposite in2="hardAlpha" operator="out"/>
<feColorMatrix type="matrix" values="0 0 0 0 0 0 0 0 0 0 0 0 0 0 0 0 0 0 0.05 0"/>
<feBlend mode="normal" in2="BackgroundImageFix" result="effect1_dropShadow_0_31"/>
<feBlend mode="normal" in="SourceGraphic" in2="effect1_dropShadow_0_31" result="shape"/>
</filter>
<linearGradient id="paint0_linear_0_31" x1="36.1829" y1="59.6376" x2="36.1829" y2="16.3429" gradientUnits="userSpaceOnUse">
<stop stop-color="#D1BDFF"/>
<stop offset="1" stop-color="#AAD6FF"/>
</linearGradient>
</defs>
</svg>
