<svg preserveAspectRatio="none" width="100%" height="100%" overflow="visible" style="display: block;" viewBox="0 0 49.7021 51.8957" fill="none" xmlns="http://www.w3.org/2000/svg">
<g id="Calque_2" filter="url(#filter0_d_0_26)">
<path id="Vector" d="M16.54 19.2412C16.6929 19.333 16.8288 19.3942 16.9646 19.4707C18.3402 20.2815 19.6989 21.1076 21.0745 21.9184C22.2973 22.6374 23.503 22.3468 24.1314 21.1688C25.4731 18.6446 26.8147 16.1051 28.1564 13.5809C28.2243 13.4585 28.2922 13.3208 28.3771 13.1678C28.479 13.229 28.547 13.2596 28.6149 13.3208C30.9586 15.5696 33.0644 17.9562 34.5419 20.7557C35.6798 22.8975 36.3082 25.1463 36.2912 27.5329C36.2742 32.6578 31.9605 37.0178 26.3222 37.6603C20.0555 38.364 14.3492 34.4171 13.5171 28.7567C13.2793 27.0892 13.551 25.4829 14.1115 23.8919C14.6549 22.3621 15.4362 20.924 16.3193 19.5319C16.3872 19.4248 16.4721 19.333 16.557 19.2106L16.54 19.2412Z" fill="url(#paint0_linear_0_26)"/>
<path id="Vector_2" d="M21.6214 18.3529C21.952 17.7433 22.2495 17.1931 22.5305 16.643C23.6875 14.4573 24.8445 12.2716 26.0015 10.0859C26.6627 8.85175 28.1007 8.64358 29.1751 9.59518C31.6214 11.7809 33.9519 14.0558 35.8197 16.6727C37.6709 19.245 39.0098 21.9957 39.5056 25.0438C40.266 29.891 38.8445 34.084 34.8114 37.4443C32.4313 39.4368 29.5553 40.5816 26.2991 40.8344C21.39 41.221 17.2082 39.7787 13.8528 36.5374C11.638 34.3516 10.3983 31.7496 10.0677 28.8056C9.77019 26.0995 10.4809 23.5569 11.6545 21.1036C12.4644 19.4086 13.4727 17.8027 14.6131 16.2713C15.2247 15.4386 16.3322 15.2304 17.2578 15.7806C18.5636 16.5389 19.8528 17.3269 21.1586 18.1001C21.2908 18.1745 21.4396 18.2488 21.6214 18.3677V18.3529ZM16.7619 19.5424C16.6627 19.6613 16.5966 19.7505 16.5305 19.8546C15.671 21.2077 14.9107 22.6053 14.3817 24.0922C13.8363 25.6386 13.5718 27.1998 13.8032 28.8205C14.6131 34.307 20.1503 38.158 26.266 37.4741C31.7536 36.8496 35.9519 32.612 35.9685 27.631C35.9685 25.3263 35.3569 23.1257 34.266 21.0441C32.828 18.3231 30.7784 15.9887 28.4974 13.8179C28.4478 13.7584 28.3652 13.7287 28.266 13.6692C28.1834 13.8179 28.1172 13.9369 28.0511 14.0707C26.7453 16.524 25.4561 18.9922 24.1338 21.4456C23.5222 22.5905 22.3321 22.873 21.1586 22.1741C19.8197 21.3861 18.4974 20.5832 17.1586 19.7951C17.0264 19.7208 16.8941 19.6465 16.7454 19.5721L16.7619 19.5424Z" fill="var(--fill-0, white)"/>
<path id="Vector_3" d="M20.2068 27.3781C20.2871 27.4269 20.3584 27.4594 20.4297 27.5001C21.1519 27.9314 21.8652 28.3708 22.5874 28.8021C23.2294 29.1846 23.8624 29.03 24.1923 28.4034C24.8967 27.0607 25.601 25.7099 26.3054 24.3672C26.3411 24.3021 26.3767 24.2289 26.4213 24.1475C26.4748 24.1801 26.5105 24.1964 26.5461 24.2289C27.7765 25.4251 28.8821 26.6945 29.6578 28.1837C30.2552 29.3229 30.5851 30.5191 30.5762 31.7885C30.5673 34.5145 28.3026 36.8337 25.3425 37.1754C22.0524 37.5498 19.0567 35.4503 18.6198 32.4395C18.4949 31.5525 18.6376 30.6981 18.9318 29.8518C19.2171 29.0381 19.6273 28.2732 20.0909 27.5327C20.1266 27.4757 20.1712 27.4269 20.2157 27.3618L20.2068 27.3781Z" fill="var(--fill-0, #D0E7FD)"/>
</g>
<defs>
<filter id="filter0_d_0_26" x="-1.54832e-07" y="-0.0149288" width="49.7206" height="51.9107" filterUnits="userSpaceOnUse" color-interpolation-filters="sRGB">
<feFlood flood-opacity="0" result="BackgroundImageFix"/>
<feColorMatrix in="SourceAlpha" type="matrix" values="0 0 0 0 0 0 0 0 0 0 0 0 0 0 0 0 0 0 127 0" result="hardAlpha"/>
<feOffset dy="1"/>
<feGaussianBlur stdDeviation="5"/>
<feComposite in2="hardAlpha" operator="out"/>
<feColorMatrix type="matrix" values="0 0 0 0 0 0 0 0 0 0 0 0 0 0 0 0 0 0 0.05 0"/>
<feBlend mode="normal" in2="BackgroundImageFix" result="effect1_dropShadow_0_26"/>
<feBlend mode="normal" in="SourceGraphic" in2="effect1_dropShadow_0_26" result="shape"/>
</filter>
<linearGradient id="paint0_linear_0_26" x1="24.8612" y1="37.7415" x2="24.8612" y2="13.1678" gradientUnits="userSpaceOnUse">
<stop stop-color="#D1BDFF"/>
<stop offset="1" stop-color="#AAD6FF"/>
</linearGradient>
</defs>
</svg>
